<svg version="1.1" id="Layer_1" xmlns="http://www.w3.org/2000/svg" xmlns:xlink="http://www.w3.org/1999/xlink" x="0px" y="0px"
	  viewBox="0 0 1024 1024" enable-background="new 0 0 1024 1024" xml:space="preserve">
<path opacity="1.000000" stroke="none" 
	d="
M220.600006,1.000000 
	C220.363831,9.276291 219.073227,17.543146 220.810669,25.842625 
	C224.423553,43.100643 235.175690,55.234802 249.231216,64.766541 
	C269.885773,78.773407 292.906036,85.673973 317.770905,86.626373 
	C318.737335,86.663391 319.711151,86.506363 320.697113,86.438683 
	C321.544464,83.964508 320.169403,82.044601 319.780151,80.004204 
	C316.513611,62.881725 323.239594,48.623585 339.499207,38.263058 
	C352.205017,30.166971 366.183838,25.329451 380.928375,22.981215 
	C397.412781,20.355881 414.044647,19.499475 430.681396,21.738398 
	C437.627991,22.673252 444.324371,24.573130 450.735840,27.552464 
	C469.569061,36.304031 468.485138,56.787300 457.057281,67.702255 
	C447.827026,76.518257 436.432648,81.220528 424.111328,83.294876 
	C395.365753,88.134285 366.412354,91.062584 337.225983,91.333687 
	C335.145721,91.353012 332.928131,90.714508 330.961823,92.013054 
	C330.714722,94.210014 332.276276,95.439499 333.329071,96.841881 
	C348.014191,116.403130 368.010193,128.276230 390.865234,135.510513 
	C420.420898,144.865768 450.602112,151.647430 481.398376,155.479492 
	C487.007141,156.177399 492.694946,156.256378 498.294220,157.008530 
	C502.007660,157.507370 502.900970,156.079315 502.951508,152.680176 
	C503.097534,142.855896 503.580109,133.037170 503.804749,123.213402 
	C504.140198,108.544495 508.509674,95.352158 518.223389,84.220230 
	C533.175598,67.084946 549.533142,51.315449 572.220093,45.503452 
	C605.746399,36.914574 639.698608,33.485718 673.832397,42.769669 
	C679.499695,44.311085 684.799438,46.747330 689.550720,50.235645 
	C698.610718,56.887360 701.288513,65.332184 696.912720,75.639145 
	C689.676025,92.684479 677.939758,106.169960 662.357300,116.028076 
	C631.720825,135.410034 597.782043,146.627548 562.865967,155.197708 
	C546.193298,159.290024 529.340759,162.433334 512.049561,162.011353 
	C508.727264,161.930267 506.935638,162.953644 507.338837,166.558487 
	C508.131439,173.644974 508.143982,180.847580 510.788116,187.643478 
	C511.793701,190.228149 513.222351,191.968536 516.276428,191.677353 
	C519.284729,191.390579 520.594604,192.824448 520.319824,195.792328 
	C520.304504,195.957352 520.336426,196.126740 520.321350,196.291824 
	C518.442993,216.930603 529.477356,231.532455 543.161926,244.819580 
	C544.830200,246.439407 545.121033,248.154861 545.181458,250.170288 
	C545.370972,256.493805 545.240601,262.816742 545.855103,269.142242 
	C546.176392,272.450104 547.285095,273.984650 550.641418,273.987274 
	C554.967224,273.990662 556.373535,276.103058 555.609436,280.434570 
	C555.037720,283.675232 555.192139,287.090302 555.382263,290.407135 
	C555.608215,294.350250 554.257996,296.603821 550.067505,296.152710 
	C545.047058,295.612366 543.323608,297.511383 543.864441,302.642273 
	C544.403137,307.751831 544.088989,312.964020 543.965576,318.126862 
	C543.850342,322.946930 541.287476,324.362213 534.229187,324.214294 
	C529.859802,324.122681 530.846313,320.991791 530.687012,318.514191 
	C530.313538,312.702240 529.917664,306.887939 529.748779,301.068268 
	C529.665955,298.215637 528.389526,297.338898 525.720642,297.352783 
	C517.722473,297.394470 509.719757,297.413971 501.726410,297.181122 
	C498.080017,297.074860 497.148468,298.663788 497.255188,301.974670 
	C497.437622,307.634888 497.163147,313.310730 497.381104,318.968475 
	C497.514221,322.424957 496.098633,323.873718 492.785828,323.868958 
	C491.120972,323.866547 489.454346,323.953247 487.791321,324.048431 
	C484.798035,324.219696 483.649170,322.777313 483.641663,319.849487 
	C483.626312,313.856750 483.706665,307.868530 483.186951,301.870544 
	C482.874054,298.259521 481.687439,296.597473 477.893433,296.164581 
	C469.674103,295.226776 469.696594,295.028442 469.688965,286.737488 
	C469.687408,285.071045 469.786377,283.397491 469.667114,281.739563 
	C469.329102,277.040771 469.492828,272.978790 476.084290,273.508392 
	C478.546356,273.706207 478.524628,271.381104 478.772095,269.514679 
	C479.650208,262.891113 479.843719,256.229614 479.832123,249.570251 
	C479.824982,245.473984 480.875031,242.149048 484.315430,239.586502 
	C490.830750,234.733704 494.070587,227.495178 497.682343,220.557602 
	C498.824860,218.362991 499.614990,215.982803 502.667389,215.511963 
	C504.859619,215.173798 504.645813,213.132660 504.657776,211.483994 
	C504.692841,206.651581 503.666840,201.543655 504.889404,197.041351 
	C507.764587,186.453033 502.561890,176.614151 503.145203,166.347031 
	C503.365875,162.463089 501.484650,161.503342 497.737183,161.185379 
	C456.757721,157.708221 416.711823,149.521194 378.128845,135.237289 
	C356.707428,127.306831 339.097778,113.776215 326.433960,94.400711 
	C325.038788,92.266075 323.421478,91.247147 320.798431,91.016754 
	C312.357178,90.275337 303.870117,89.648857 295.532196,88.214035 
	C271.610504,84.097527 250.480743,73.898094 233.144241,56.864506 
	C217.739365,41.728764 212.765289,23.010208 216.932251,1.426272 
	C218.066666,1.000000 219.133347,1.000000 220.600006,1.000000 
M570.516479,148.861938 
	C577.871582,146.759460 585.275635,144.813141 592.572815,142.525787 
	C616.322021,135.081406 639.321045,125.837708 660.291138,112.253113 
	C675.765015,102.228981 687.363403,88.781319 693.886658,71.287460 
	C695.851440,66.018364 694.446167,61.491573 690.945190,57.411789 
	C688.528564,54.595627 685.604431,52.439682 682.287720,50.764980 
	C669.054749,44.083275 654.675598,41.959915 640.220459,41.602535 
	C626.797791,41.270679 613.362183,43.044807 599.936401,44.042355 
	C569.364380,46.313877 545.276062,60.410912 525.186890,82.600456 
	C515.800110,92.968697 508.912079,104.590157 508.433105,118.991066 
	C508.068085,129.965775 507.089355,140.909424 507.175323,151.915894 
	C507.212189,156.629379 508.736511,157.749878 513.214294,157.785919 
	C532.550598,157.941559 551.181091,153.860504 570.516479,148.861938 
M392.190094,25.867043 
	C390.866302,26.010294 389.541992,26.148584 388.218842,26.297544 
	C369.000793,28.461086 351.140350,34.215534 335.798492,46.420414 
	C325.209412,54.844341 321.011322,68.032532 324.314758,80.359665 
	C325.609863,85.192665 327.980469,86.946838 333.065216,86.955994 
	C363.101746,87.010056 392.894989,84.222122 422.488708,79.411720 
	C433.941467,77.550095 444.649811,73.236320 453.463348,65.270180 
	C463.167633,56.498913 465.429932,38.962029 448.586029,31.183599 
	C446.326630,30.140221 443.985321,29.222692 441.604889,28.501247 
	C425.664978,23.670267 409.388092,24.362499 392.190094,25.867043 
M483.320435,263.618744 
	C483.228424,266.115479 483.075531,268.611786 483.058807,271.109009 
	C483.034149,274.786743 482.319397,277.718750 477.671692,277.720612 
	C476.218994,277.721191 474.854889,278.362823 474.279663,280.143738 
	C471.947479,287.363983 474.531097,291.730591 482.158051,292.659668 
	C485.813995,293.105042 487.436432,294.579468 487.350037,298.392334 
	C487.221863,304.048615 487.443604,309.715637 487.626251,315.374573 
	C487.693298,317.452942 487.371063,319.980194 490.872803,319.642914 
	C494.090942,319.332947 493.217407,317.094269 493.180664,315.177917 
	C493.068939,309.348633 493.084351,303.514618 492.846313,297.690826 
	C492.693939,293.962067 494.317230,292.670776 497.915802,292.803680 
	C508.231812,293.184692 518.560669,292.859009 528.881531,293.537598 
	C532.538147,293.778046 533.969971,295.181030 534.017456,298.633484 
	C534.095337,304.296906 534.253357,309.959442 534.410156,315.621429 
	C534.461487,317.473389 534.414551,319.571075 537.092590,319.513672 
	C539.748230,319.456726 539.641174,317.367706 539.649719,315.515656 
	C539.678101,309.351532 539.740356,303.186401 539.655884,297.023468 
	C539.618103,294.264740 540.399658,292.899811 543.492065,292.496643 
	C551.259033,291.484070 551.136536,291.293457 551.641602,283.671417 
	C551.879395,280.083069 551.226074,277.810211 546.925659,278.121429 
	C543.199097,278.391174 541.648865,276.521698 541.610474,272.683136 
	C541.540649,265.699738 540.977417,258.722595 540.765625,251.738403 
	C540.699646,249.561630 539.880066,248.115036 538.309143,246.606049 
	C533.260803,241.756927 527.459534,236.672226 525.438477,230.311417 
	C522.180176,220.056992 516.189331,218.331207 506.948608,219.922379 
	C503.765381,220.470505 501.874359,221.396561 500.508362,224.287872 
	C497.153961,231.387909 493.315002,238.183884 486.844391,243.062256 
	C485.361023,244.180618 484.405914,245.677811 484.307678,247.718124 
	C484.067596,252.703751 483.666870,257.681641 483.320435,263.618744 
z"/>
<path  opacity="1.000000" stroke="none" 
	d="
M674.375000,1025.000000 
	C673.635864,1023.252380 673.899902,1021.821594 675.435425,1020.575439 
	C691.795288,1007.299072 702.155640,989.653931 710.693970,970.900757 
	C724.341248,940.926697 731.578003,909.566711 729.665344,876.395935 
	C727.736206,842.940491 712.396851,818.995483 680.582703,806.598572 
	C679.826843,806.304077 679.036377,806.098694 677.682739,805.666992 
	C677.523987,813.425354 677.326599,820.846191 675.325012,828.023926 
	C668.914978,851.010681 662.172974,873.850708 647.000977,893.026367 
	C627.218811,918.028870 601.838745,922.366455 574.068054,905.535889 
	C560.965393,897.594849 548.554321,888.212463 539.844910,875.931519 
	C522.432617,851.378845 519.964722,817.077209 555.651367,799.698303 
	C575.127380,790.213806 595.826660,787.449280 617.398804,789.342224 
	C635.350159,790.917419 653.142700,792.984131 670.392395,798.456604 
	C670.801514,798.586487 671.331909,798.334167 672.248779,798.190918 
	C671.729980,788.312622 668.142639,779.399597 664.065613,770.706909 
	C652.100647,745.195923 633.305237,727.071472 607.034058,716.114197 
	C578.710449,704.301025 549.889282,694.086731 520.477356,685.443542 
	C519.537903,685.167419 518.542603,685.081543 517.280945,684.854370 
	C515.506287,688.823181 515.917725,693.055847 515.474731,697.054565 
	C512.627014,722.760315 508.217316,748.140198 499.172241,772.456360 
	C492.097198,791.476257 479.407654,807.113586 466.963440,822.737488 
	C455.899933,836.627991 443.201538,848.874512 427.200073,857.170654 
	C416.865753,862.528748 405.955048,866.233643 394.248932,866.061401 
	C384.512787,865.918091 375.313568,862.453613 366.200867,859.323547 
	C350.443176,853.910828 335.760742,846.567383 324.547729,833.710815 
	C313.134857,820.624939 310.280060,805.548157 314.286407,788.906616 
	C317.751038,774.515198 325.232086,762.180481 333.949280,750.487122 
	C353.106628,724.789124 375.560089,702.865723 404.680298,688.508240 
	C437.477325,672.338013 471.567780,668.282715 507.113739,677.232300 
	C508.694489,677.630249 510.237915,678.429443 511.935242,677.966431 
	C513.231201,676.695007 512.778992,675.112976 512.747131,673.681641 
	C512.065979,643.047546 511.414764,612.412598 510.614594,581.781494 
	C510.084045,561.472717 509.310608,541.170349 508.713348,520.863159 
	C508.665405,519.233459 507.616364,516.642700 510.384644,516.434265 
	C513.104553,516.229492 512.339172,519.009033 512.770203,520.582581 
	C513.115845,521.844299 513.085388,523.224243 513.117432,524.554260 
	C513.534363,541.869202 513.716614,559.192932 514.381714,576.498169 
	C515.654480,609.616028 516.625061,642.740906 517.104248,675.877869 
	C517.162231,679.884460 519.284546,680.864075 522.406860,681.759277 
	C545.304810,688.324890 567.871765,695.879272 590.028015,704.643738 
	C605.072510,710.594849 619.955750,716.974121 633.495117,725.890320 
	C649.156006,736.203735 658.758606,751.693726 667.253784,767.860168 
	C671.840149,776.588257 675.009399,785.907959 676.356201,795.739685 
	C676.831421,799.208069 678.421082,801.230469 681.807434,802.627075 
	C697.795227,809.220703 711.877136,818.377136 721.450195,833.336792 
	C728.834900,844.876831 731.990845,857.802673 733.160767,871.145447 
	C737.326721,918.659424 724.184326,961.701782 698.522034,1001.307129 
	C692.792664,1010.149414 685.848145,1018.026001 677.231323,1024.763550 
	C676.250000,1025.000000 675.500000,1025.000000 674.375000,1025.000000 
M317.118378,798.699097 
	C315.770935,813.211609 321.077545,825.117859 331.523041,834.896545 
	C343.739380,846.332886 358.847809,852.200256 374.338409,857.738037 
	C397.000244,865.839417 416.802582,860.101868 435.551788,847.125854 
	C447.306152,838.990967 456.970673,828.703491 465.838623,817.583252 
	C482.692017,796.449341 497.097321,774.138733 502.710724,747.046143 
	C506.591187,728.317383 510.466064,709.627075 511.771210,690.500122 
	C512.293152,682.850891 512.336121,682.870117 504.655731,680.892456 
	C493.313507,677.971741 481.700287,676.391602 470.081177,676.581604 
	C447.499603,676.950928 425.956848,682.181946 405.749084,692.574158 
	C371.984894,709.937927 347.125397,736.553101 327.320892,768.284607 
	C321.751465,777.208069 317.923737,787.033569 317.118378,798.699097 
M552.829163,883.659485 
	C561.185120,891.606018 570.149597,898.755005 580.303711,904.294250 
	C602.156372,916.215210 623.805176,913.301880 639.191711,895.611572 
	C660.144897,871.521118 669.047058,842.254944 673.528137,811.393127 
	C674.623413,803.849854 673.870911,803.690002 666.390320,801.543640 
	C643.481018,794.970276 620.049194,792.375549 596.324646,793.412903 
	C579.300415,794.157288 563.122498,798.763123 548.942749,808.587463 
	C537.847107,816.274963 531.795044,826.998047 532.217651,840.808594 
	C532.738708,857.833679 539.274658,872.064087 552.829163,883.659485 
z"/>
<path  opacity="1.000000" stroke="none" 
	d="
M386.008484,522.783813 
	C381.203796,528.149292 375.476654,528.295105 369.701202,526.244568 
	C364.119385,524.262695 363.031342,519.178467 362.996735,513.958984 
	C362.903961,499.963531 362.808197,485.964905 363.030487,471.972534 
	C363.100616,467.556854 361.622375,466.263885 357.271667,466.308502 
	C337.779236,466.508484 318.282654,466.293854 298.789856,466.474274 
	C294.494324,466.514038 292.913879,465.207062 292.929962,460.802063 
	C293.058746,425.479248 292.970459,390.155670 293.038605,354.832520 
	C293.058533,344.498566 298.111694,339.214172 306.817017,340.007690 
	C314.282410,340.688171 318.242432,345.309723 318.254883,353.662384 
	C318.293854,379.821564 318.224548,405.980957 318.279816,432.140076 
	C318.302704,442.965790 316.896820,441.588165 327.883514,441.664825 
	C337.546997,441.732269 347.220886,441.422546 356.871246,441.784729 
	C361.845306,441.971344 363.077576,440.124023 363.028900,435.465179 
	C362.825165,415.972809 362.923553,396.477112 362.956696,376.982697 
	C362.960663,374.661011 363.029083,372.301208 363.438293,370.025757 
	C364.530060,363.954865 368.295166,360.873474 374.520599,360.672638 
	C382.105225,360.427917 386.218475,363.038513 387.705353,369.343567 
	C388.194427,371.417480 388.221527,373.632568 388.226013,375.783539 
	C388.267761,395.777771 388.323730,415.772522 388.203003,435.766052 
	C388.181610,439.308838 388.708984,441.531067 392.685608,442.714752 
	C397.937134,444.277832 400.302795,448.610718 400.193573,454.364349 
	C400.085846,460.036530 397.478149,464.356750 392.220947,465.753418 
	C388.816772,466.657806 388.190033,468.318420 388.212769,471.370544 
	C388.316986,485.365784 388.241791,499.362335 388.261292,513.358337 
	C388.265778,516.557556 388.133545,519.699951 386.008484,522.783813 
z"/>
<path  opacity="1.000000" stroke="none" 
	d="
M723.519958,360.765869 
	C730.983459,362.474518 732.790588,367.791016 732.928467,374.043518 
	C733.093750,381.535889 733.012329,389.033997 733.012634,396.529633 
	C733.013245,409.688904 733.062561,422.848816 732.937317,436.006989 
	C732.905518,439.352509 733.551147,441.455353 737.234985,442.654999 
	C742.848755,444.483124 744.453064,447.660034 744.407654,454.315643 
	C744.362732,460.892883 742.743835,463.796967 736.839111,465.683167 
	C733.535767,466.738403 732.929932,468.549255 732.949402,471.539520 
	C733.041626,485.697662 733.105042,499.857758 732.958435,514.014893 
	C732.869385,522.609070 729.245789,526.694702 721.849976,527.249329 
	C712.942261,527.917236 707.865479,523.445496 707.786987,514.465332 
	C707.663208,500.307739 707.608948,486.145813 707.844666,471.991028 
	C707.917664,467.606354 706.545593,466.253479 702.148010,466.300720 
	C682.661194,466.510132 663.169556,466.269989 643.682800,466.485352 
	C639.008972,466.536987 637.692993,464.865387 637.708374,460.397919 
	C637.831055,424.751678 637.731079,389.104797 637.787354,353.458221 
	C637.803467,343.253998 645.368896,337.668488 654.812439,340.646790 
	C660.382019,342.403290 662.990601,346.528931 663.005249,353.988800 
	C663.049133,376.309479 663.030823,398.630341 663.039917,420.951111 
	C663.041931,425.781677 663.311890,430.629150 662.993286,435.438019 
	C662.683960,440.105194 664.112610,441.937347 669.098083,441.782440 
	C680.081299,441.441101 691.086853,441.499481 702.074097,441.768921 
	C706.402527,441.875092 707.861572,440.628235 707.814880,436.160583 
	C707.604370,416.007446 707.716980,395.850861 707.732788,375.695496 
	C707.741760,364.231323 711.581726,360.505402 723.519958,360.765869 
z"/>
<path  opacity="1.000000" stroke="none" 
	d="
M456.668243,359.640747 
	C505.289307,318.231964 581.897461,341.710419 598.540527,402.805023 
	C612.811279,455.191040 579.995056,505.848297 526.220764,514.442688 
	C479.146423,521.966309 432.971558,487.740143 426.624847,440.484314 
	C422.316467,408.405518 432.081726,381.427277 456.668243,359.640747 
M438.432465,433.990448 
	C438.704498,435.463135 439.049072,436.926544 439.237885,438.409821 
	C443.639832,472.988007 475.344727,501.581604 510.460785,502.625366 
	C562.668884,504.177185 600.739807,455.286194 585.675415,405.273682 
	C577.369873,377.699768 558.439758,359.939453 530.367737,353.679474 
	C501.140778,347.161987 475.951935,355.749542 456.192108,378.442688 
	C442.636627,394.010468 437.320251,412.582306 438.432465,433.990448 
z"/>
<path  opacity="1.000000" stroke="none" 
	d="
M674.789551,603.323975 
	C673.324951,610.236389 668.050171,614.912964 661.553040,615.202393 
	C657.902588,615.364990 654.234070,615.307007 650.581055,615.161682 
	C648.029297,615.060242 645.831665,613.983093 645.998047,611.036438 
	C646.154175,608.270813 648.482178,607.784729 650.753479,607.717529 
	C653.411987,607.638794 656.074951,607.723938 658.735352,607.690308 
	C665.983582,607.598633 668.087952,604.870056 666.455750,597.178772 
	C663.088928,598.594116 659.617310,599.228149 655.965149,599.044006 
	C648.086365,598.646973 642.743347,593.236328 642.683838,585.331299 
	C642.670105,583.501953 642.853760,581.653137 642.651306,579.846252 
	C641.328491,568.039062 653.161682,563.260498 662.962402,566.392700 
	C665.208618,567.110474 666.637024,568.108704 669.130615,566.368225 
	C672.246521,564.193237 674.874451,566.527771 674.916748,571.464478 
	C675.006592,581.939697 674.878723,592.416870 674.789551,603.323975 
M652.645325,573.980347 
	C648.820190,576.382751 650.381714,580.225098 650.297546,583.490112 
	C650.129089,590.025757 653.476929,592.639038 659.672424,590.731812 
	C663.195557,589.647217 666.146362,587.564941 667.072327,583.488586 
	C668.011353,579.354797 665.814087,577.097961 662.785828,574.913269 
	C659.769836,572.737427 656.671082,572.790344 652.645325,573.980347 
z"/>
<path  opacity="1.000000" stroke="none" 
	d="
M560.770203,610.499939 
	C560.724365,597.419495 560.659302,584.790527 560.728516,572.162292 
	C560.763550,565.769165 562.110107,564.924438 567.945190,567.522522 
	C569.282593,568.118042 570.094604,567.580933 571.147156,567.098755 
	C578.231323,563.853210 588.949585,568.121521 592.061035,575.390869 
	C596.350403,585.412292 591.044556,598.202515 580.931946,602.218689 
	C577.398926,603.621887 574.569153,603.151062 568.246033,599.754883 
	C568.246033,603.420593 568.298828,606.634644 568.228210,609.846008 
	C568.177795,612.139343 567.511902,614.346252 564.970398,614.817261 
	C562.172852,615.335632 561.281189,613.236206 560.770203,610.499939 
M570.085815,577.790527 
	C567.164612,580.908203 568.089844,584.693604 568.705872,588.167053 
	C569.220886,591.070923 575.695679,595.803894 577.611511,594.974487 
	C581.306946,593.374512 584.745239,591.211426 585.488708,586.750000 
	C586.511719,580.610596 584.496765,576.299072 579.562134,573.846924 
	C575.393005,571.775146 573.163025,574.981445 570.085815,577.790527 
z"/>
<path  opacity="1.000000" stroke="none" 
	d="
M331.877747,593.829468 
	C334.829651,593.868835 337.382507,593.505310 339.691864,594.733459 
	C342.413635,596.180847 342.522888,599.040161 339.980408,600.631653 
	C336.332214,602.915283 317.572784,600.936279 314.173309,598.009827 
	C311.216034,595.464111 309.611694,592.408752 309.728516,588.439575 
	C309.826263,585.117737 309.675568,581.789062 309.755402,578.466248 
	C309.932678,571.085876 315.374695,565.679443 322.817017,565.698242 
	C326.434296,565.707397 330.164612,564.921631 333.664215,566.426331 
	C340.693359,569.448608 344.161865,577.261475 341.928040,584.686707 
	C341.033264,587.661011 338.837677,588.288757 336.132568,588.277161 
	C330.813171,588.254333 325.493561,588.270508 320.174103,588.292725 
	C319.356689,588.296143 318.495056,588.291443 317.603119,589.546387 
	C318.147583,592.184753 319.936005,593.697021 322.930542,593.795227 
	C325.753479,593.887695 328.581512,593.825745 331.877747,593.829468 
M321.032379,580.670349 
	C324.002350,580.674622 326.974274,580.745178 329.941528,580.657410 
	C331.633514,580.607422 333.968872,581.281921 334.241577,578.612732 
	C334.478760,576.291199 333.382935,574.193604 331.054077,573.596497 
	C327.524475,572.691589 323.835632,572.553406 320.347778,573.819336 
	C318.610840,574.449646 317.390900,575.880127 317.389221,577.996948 
	C317.387665,579.915466 318.447083,580.621582 321.032379,580.670349 
z"/>
<path  opacity="1.000000" stroke="none" 
	d="
M700.046509,601.326782 
	C695.121948,601.286011 690.649658,601.942383 687.021057,598.081665 
	C684.370056,595.261169 682.542725,592.410828 682.709534,588.424805 
	C682.841553,585.269531 682.695312,582.103760 682.743164,578.943726 
	C682.864746,570.911133 688.167114,565.683411 696.308044,565.680176 
	C699.450684,565.678955 702.667297,565.144470 705.728210,566.164246 
	C713.044434,568.601807 717.281921,577.533813 714.762512,584.885376 
	C713.750183,587.839478 711.434509,588.253784 708.789612,588.271973 
	C703.138123,588.310913 697.486816,588.391235 691.835999,588.487366 
	C691.556763,588.492126 691.282776,588.808472 690.690613,589.175354 
	C690.953125,592.562805 693.132019,593.768799 696.265930,593.815674 
	C700.423828,593.877930 704.588623,593.716064 708.739868,593.895264 
	C711.383362,594.009338 714.707092,594.248718 714.595032,597.808960 
	C714.482605,601.381470 711.235413,601.309814 708.516968,601.322876 
	C705.855286,601.335693 703.193542,601.326111 700.046509,601.326782 
M707.137512,577.903625 
	C705.319458,573.026550 694.812805,571.098816 691.338013,574.980652 
	C690.201660,576.250061 690.115723,577.726868 690.556458,579.171631 
	C691.044739,580.772400 692.579346,580.654724 693.897217,580.665771 
	C697.212769,580.693481 700.528870,580.700378 703.844238,580.666870 
	C705.329651,580.651917 706.968140,580.769836 707.137512,577.903625 
z"/>
<path  opacity="1.000000" stroke="none" 
	d="
M633.313232,584.886780 
	C633.481689,589.017578 633.894470,592.680664 633.744812,596.320557 
	C633.565002,600.694458 631.501343,602.003235 627.628174,600.225220 
	C625.851746,599.409668 624.528015,599.665405 622.935059,600.316528 
	C618.438843,602.154175 613.696350,601.648254 609.163757,600.940247 
	C604.145020,600.156311 601.680298,595.851013 601.687927,589.522949 
	C601.695374,583.332397 603.913513,580.069458 609.149231,578.680908 
	C613.237000,577.596863 617.433105,578.176331 621.578125,577.958130 
	C623.122498,577.876831 625.348267,578.381042 625.246338,575.817566 
	C625.165771,573.794739 623.465210,573.202087 621.644043,573.142456 
	C618.486572,573.038940 615.309326,573.128967 612.177490,572.792236 
	C609.901428,572.547546 607.837585,571.387207 608.185364,568.631897 
	C608.496521,566.166687 610.546204,565.676147 612.697754,565.670776 
	C616.027222,565.662537 619.358276,565.598572 622.685791,565.677185 
	C629.040466,565.827271 632.794006,569.479675 633.170959,575.920837 
	C633.336060,578.743164 633.269714,581.579041 633.313232,584.886780 
M611.457703,585.959412 
	C608.532166,589.206116 608.408142,592.879944 611.393127,593.472107 
	C615.448975,594.276672 619.674377,594.500488 623.400879,591.880310 
	C624.654480,590.998840 625.917786,590.142517 625.531311,588.319946 
	C625.142029,586.483826 623.658142,586.094604 622.122864,586.018066 
	C618.814453,585.853027 615.500366,585.802734 611.457703,585.959412 
z"/>
<path  opacity="1.000000" stroke="none" 
	d="
M436.244049,597.837891 
	C432.703979,594.958252 431.558319,591.491150 431.731567,587.403564 
	C431.858459,584.410339 431.802490,581.407043 431.757904,578.409302 
	C431.693085,574.052429 433.550720,570.781250 437.042877,568.233887 
	C443.088684,563.823669 455.375793,564.598938 460.717987,569.784363 
	C462.719849,571.727539 464.039093,574.007507 464.112488,576.794312 
	C464.226440,581.121826 464.329193,585.463440 464.110687,589.782593 
	C463.818359,595.561890 459.942352,599.242676 455.012848,600.496338 
	C448.828369,602.069214 442.142822,602.979492 436.244049,597.837891 
M440.701874,591.706421 
	C442.729187,593.948730 445.431061,593.820374 448.108215,593.851868 
	C452.259155,593.900757 455.987518,593.123901 456.543152,588.158569 
	C456.892578,585.035828 456.790009,581.829407 456.565094,578.683838 
	C456.289642,574.831177 453.663391,573.181946 450.109741,573.143066 
	C446.077820,573.098999 440.841461,571.879395 439.692017,577.327087 
	C438.766022,581.716064 438.532349,586.553955 440.701874,591.706421 
z"/>
<path  opacity="1.000000" stroke="none" 
	d="
M353.135376,566.024719 
	C356.850006,565.062073 357.605591,567.890320 359.293976,570.375854 
	C363.362335,566.236816 368.296509,565.097473 373.829559,565.622925 
	C379.141022,566.127319 383.240112,570.250183 383.059967,575.454651 
	C382.986389,577.579956 382.289368,579.522034 379.967743,580.012207 
	C377.547333,580.523132 376.044586,579.089355 375.781799,576.837585 
	C375.338470,573.038635 372.782410,572.888611 369.976929,573.158325 
	C364.763000,573.659607 358.366394,580.811523 358.315979,586.073120 
	C358.279358,589.896118 358.351654,593.724976 358.153107,597.539673 
	C358.050781,599.505615 356.986664,601.029724 354.751495,601.163757 
	C352.507477,601.298462 351.077423,599.898560 351.001678,597.958130 
	C350.619385,588.164551 350.406006,578.359009 351.129456,568.570984 
	C351.191010,567.738037 352.187622,566.974182 353.135376,566.024719 
z"/>
<path  opacity="1.000000" stroke="none" 
	d="
M472.796967,596.556335 
	C472.757812,588.106812 472.720032,580.115173 472.763763,572.124023 
	C472.777283,569.651978 472.529175,566.799072 475.647583,565.905884 
	C478.943298,564.961975 479.674805,567.978210 481.317993,570.575134 
	C485.419739,566.009644 490.621124,565.132324 496.271790,565.656738 
	C501.453491,566.137634 505.464203,570.699402 505.039948,575.896301 
	C504.865143,578.037231 504.121002,579.901489 501.653534,580.142090 
	C499.479492,580.354187 498.151917,579.063049 497.811432,577.033020 
	C497.442261,574.832092 496.716278,573.367126 494.169189,573.107300 
	C488.788849,572.558594 480.463776,579.546448 480.339813,584.960571 
	C480.256012,588.621643 480.325470,592.285950 480.293488,595.948547 
	C480.273804,598.202087 479.996277,600.541382 477.348816,601.075073 
	C474.315247,601.686646 473.277985,599.555664 472.796967,596.556335 
z"/>
<path  opacity="1.000000" stroke="none" 
	d="
M392.403107,599.172241 
	C391.170532,589.329956 391.902527,579.845154 391.775696,570.373840 
	C391.747650,568.280823 392.383606,566.299866 394.819550,565.837158 
	C397.845398,565.262390 398.718048,567.712769 400.020905,570.459595 
	C404.322021,566.564758 409.123230,564.989258 414.699219,565.619324 
	C420.216370,566.242737 424.056213,570.035095 423.953918,575.437073 
	C423.913757,577.558228 423.337860,579.530090 420.959656,580.033569 
	C418.539703,580.545837 417.190277,579.109741 416.651215,576.917236 
	C416.134216,574.814331 415.346558,573.309998 412.807220,573.091980 
	C407.663879,572.650391 399.449615,579.580322 399.342041,584.718201 
	C399.258453,588.711792 399.484009,592.721069 399.213806,596.699036 
	C398.908508,601.194641 396.666565,602.070801 392.403107,599.172241 
z"/>
<path  opacity="1.000000" stroke="none" 
	d="
M543.958618,370.884155 
	C561.389648,380.856689 572.383850,395.108948 576.546997,414.571838 
	C583.998169,449.405914 560.606812,484.235931 525.533447,490.296906 
	C490.018524,496.434204 456.803467,473.166016 450.921173,438.028687 
	C445.046539,402.937042 468.798431,369.856812 504.354980,364.193939 
	C518.010132,362.019135 531.250061,364.252960 543.958618,370.884155 
M525.450500,485.990479 
	C558.543213,479.212311 578.998718,448.261017 572.414246,414.929504 
	C566.278870,383.871368 534.849060,362.702881 503.525146,368.531586 
	C470.646729,374.649536 449.480682,405.586182 455.362274,438.927216 
	C460.899658,470.317047 492.236420,491.708984 525.450500,485.990479 
z"/>
<path  opacity="1.000000" stroke="none" 
	d="
M543.004028,430.803467 
	C540.389221,433.901917 537.510132,435.335938 534.039368,433.388611 
	C530.503601,431.404816 529.367798,428.153748 531.107239,424.498383 
	C532.758789,421.027618 535.900269,420.068481 539.492065,421.247253 
	C543.367615,422.519135 544.593994,425.753143 543.004028,430.803467 
z"/>
<path  opacity="1.000000" stroke="none" 
	d="
M494.648987,432.771301 
	C491.446655,434.743805 488.654694,434.691528 486.112823,432.426880 
	C483.953857,430.503387 483.148010,428.016602 484.095490,425.256622 
	C484.973938,422.697845 487.052887,421.316833 489.655670,420.897888 
	C492.547668,420.432404 494.962189,421.523956 496.389099,424.034637 
	C498.145416,427.125000 497.597290,430.055450 494.648987,432.771301 
z"/>
</svg>